Coordinates
version=1
nRows=11
nColumns=36
inDegrees=yes

Units are S.I. units (second, meters, Newtons, ...)
If the header above contains a line with 'inDegrees', this indicates whether rotational values are in degrees (yes) or radians (no).

endheader
time	pelvis_tilt	pelvis_list	pelvis_rotation	pelvis_tx	pelvis_ty	pelvis_tz	hip_flexion_r	hip_adduction_r	hip_rotation_r	knee_angle_r	knee_angle_r_beta	ankle_angle_r	subtalar_angle_r	mtp_angle_r	hip_flexion_l	hip_adduction_l	hip_rotation_l	knee_angle_l	knee_angle_l_beta	ankle_angle_l	subtalar_angle_l	mtp_angle_l	lumbar_extension	lumbar_bending	lumbar_rotation	arm_flex_r	arm_add_r	arm_rot_r	elbow_flex_r	pro_sup_r	arm_flex_l	arm_add_l	arm_rot_l	elbow_flex_l	pro_sup_l
      1.58333330	     -7.56358308	     -0.51283341	     -2.30660528	     -1.07226966	      1.33494351	     -0.06701976	     13.71892198	      1.40195116	      2.03280530	     13.26783589	      0.23156742	      6.58438946	    -14.74422001	     -7.49999987	     11.23419921	     -0.40884773	      6.34292009	      9.75496534	      0.17025626	      5.66698188	    -13.77164738	     -7.49999987	     -9.02548004	      1.30348629	     -0.64408170	     -5.82235240	     -7.69675661	      0.19136595	     34.42264162	     77.72571993	     -5.86424011	     -9.99348948	     -2.40714964	     42.49580686	     85.19835965
      1.60000000	     -8.31930764	     -0.39581002	     -2.20670122	     -1.07220048	      1.32708433	     -0.06720237	     15.21440745	      1.31428188	      1.62174650	     14.07069485	      0.24557995	      6.53371303	    -14.93691979	     -7.49999987	     12.93490070	     -0.38794220	      5.91742439	     10.82453916	      0.18892385	      5.82517871	    -13.69031253	     -7.49999987	     -9.89301430	      0.97815272	     -0.70809885	     -5.46056945	     -7.80213857	      0.76876291	     34.34796393	     80.96276561	     -6.15748371	     -9.93463132	     -3.86945821	     43.29763933	     89.19452928
      1.61666670	     -8.76798662	     -0.30340049	     -2.02268940	     -1.07086911	      1.33481487	     -0.06721942	     15.89115056	      1.16753486	      1.37436849	     14.25173436	      0.24873969	      6.20999673	    -14.95213072	     -7.49999987	     13.84553741	     -0.35229950	      5.54301415	     11.21943908	      0.19581615	      5.35956108	    -13.49819974	     -7.49999987	    -10.95192960	      0.83668839	     -0.64593380	     -5.24516435	     -7.84193493	      0.80621478	     34.41256592	     80.98579917	     -5.95642214	     -9.95260799	     -3.90052263	     43.13842062	     89.17724719
      1.63333330	     -9.62029091	     -0.21577343	     -1.89637458	     -1.07107905	      1.32604105	     -0.06678100	     17.29889866	      1.05964085	      1.27938787	     15.03445085	      0.26240067	      6.21153583	    -15.62507154	     -7.49999987	     15.48983331	     -0.31759015	      4.96784442	     12.34046116	      0.21538168	      5.65400989	    -13.36028274	     -7.49999987	    -11.16544254	      0.73574810	     -0.45258973	     -5.54155108	     -8.31600523	      1.59064484	     34.79032718	     79.99854195	     -5.93796467	    -10.00531380	     -3.57021265	     42.68170819	     87.37339920
      1.65000000	    -10.18645078	     -0.20286453	     -1.97161102	     -1.07741524	      1.32630342	     -0.06126156	     18.28302395	      1.18906643	      1.38766944	     15.57749066	      0.27187850	      6.13907981	    -16.04065620	     -7.49999987	     16.49081334	     -0.52541908	      4.71806908	     12.64505372	      0.22069782	      5.45770512	    -13.09562251	     -7.49999987	    -11.91644721	      0.60111948	     -0.68002552	     -5.09211264	     -8.38777174	      2.26887007	     34.58607273	     83.53809849	     -5.84270005	    -10.14802401	     -4.77350576	     42.37014633	     90.48450052
      1.66666670	    -10.61421887	     -0.17384610	     -2.23622985	     -1.07780022	      1.32279792	     -0.06108185	     19.27957070	      1.29573648	      1.51982766	     16.40779224	      0.28637000	      6.42206856	    -16.20299022	     -7.49999987	     17.24036843	     -0.69150009	      4.40059408	     12.97496613	      0.22645588	      5.34255642	    -12.79097099	     -7.49999987	    -12.88521964	      0.51779455	     -0.75851761	     -5.20975251	     -8.56369987	      2.18205624	     34.90737476	     81.05491790	     -5.99754725	    -10.37948209	     -4.86896460	     42.71935825	     87.70210163
      1.68333330	    -11.50763385	     -0.10313355	     -2.59542320	     -1.08347076	      1.31828570	     -0.06500877	     21.23859947	      1.36886322	      1.67467416	     17.81897502	      0.31099978	      6.98575922	    -16.68298535	     -7.49999987	     18.92480725	     -0.80711631	      4.16080448	     13.85383522	      0.24179504	      5.55101938	    -12.74482462	     -7.49999987	    -13.32781835	      0.45670645	     -0.83936211	     -4.77956443	     -9.01193188	      2.45241771	     33.97428672	     81.65446834	     -5.48131694	    -10.23376995	     -5.08500622	     41.89105772	     88.28575112
      1.70000000	    -11.81356015	     -0.10664258	     -2.96305835	     -1.08385069	      1.32297922	     -0.06480609	     22.25845731	      1.44448216	      1.86805536	     18.80767443	      0.32825584	      7.29973738	    -16.80138415	     -7.49999987	     19.72538005	     -0.94990765	      3.99460145	     14.44876062	      0.25217845	      5.48990302	    -12.72761379	     -7.49999987	    -14.65086651	      0.42610377	     -0.82165326	     -4.45278564	     -9.59164451	      2.43265064	     33.68551757	     81.76749203	     -5.10022894	    -10.08927844	     -5.24066172	     41.70719944	     88.39214759
      1.71666670	    -12.67513929	     -0.01039228	     -3.32303609	     -1.08314179	      1.32208974	     -0.06420790	     23.79961870	      1.44083511	      1.92895195	     19.67359678	      0.34336904	      7.62870679	    -16.79867060	     -7.49999987	     20.94713017	     -0.98538805	      3.51497014	     15.03366055	      0.26238688	      5.77216210	    -12.37319564	     -7.49999987	    -15.04346499	      0.43320494	     -0.98316648	     -4.25379081	    -10.03815252	      2.45963455	     33.20302334	     84.98267763	     -5.20297332	     -9.51954072	     -7.37669570	     41.33048540	     92.72363534
      1.73333330	    -13.32360867	      0.09780941	     -3.64115020	     -1.08318666	      1.31784575	     -0.06414960	     24.82153167	      1.45996798	      2.26995485	     20.19126812	      0.35240411	      7.90767482	    -17.02838945	     -7.49999987	     21.92364001	     -0.99470921	      3.00200437	     15.72369685	      0.27443028	      6.05155645	    -12.34520744	     -7.49999987	    -16.27530002	      0.42620565	     -0.91911486	     -4.19737764	    -10.21035483	      1.88957377	     33.61911559	     83.61880803	     -4.71395436	     -9.39259047	     -7.27567842	     41.01052131	     90.80100445
      1.75000000	    -14.55249284	      0.37127398	     -3.94678328	     -1.08888294	      1.31254952	     -0.06742226	     26.95406040	      1.28452997	      2.30266839	     21.17519807	      0.36957693	      8.14821891	    -17.25409787	     -7.49999987	     23.77607953	     -0.76984793	      2.69948758	     16.61766748	      0.29003301	      6.28730060	    -12.73471659	     -7.49999987	    -17.08206712	      0.33871068	     -0.71439233	     -4.08752005	    -10.60201687	      1.86900394	     33.32455606	     83.72737642	     -3.84167826	     -9.20591997	     -7.08622507	     40.29688770	     90.87286653
